<svg width="0" height="0" class="hidden">
  <symbol xmlns="http://www.w3.org/2000/svg"  viewBox="0 0 144 46" id="brandLogo">
    <g clip-path="url(#a)">
      <path  fill-rule="evenodd" d="M38 14h-4c-6 5-11 13-11 13s1-9 5-13l-3 1-9 2s5-5 12-7H16s2-2 7-3l5-1-7-3s8-3 13 3l1-2A23 23 0 0 0 8 40V17l11 29h2L9 16c4 4 18 17 23 28 3-1 6-3 8-6l1-5c2-10-1-16-3-19Zm6 1v-2h-1l-4-1 4 8 1 12c2-5 2-12 0-17Zm72-5 2 2h6l1-2 1-3a5 5 0 0 0-2-4l-3-1-3 1-2 2-1 2 1 3Zm7-1-1 1h-3l-1-1V7a3 3 0 0 1 1-2l2-1 1 1 1 1v3ZM58 7V5h5V2h-8v10h3V9h5V7h-5Zm11 3h2l2 2h3l-2-3a3 3 0 0 0 1-3V4l-2-1-2-1h-4v10h2v-2Zm2-5h1l1 1-1 1h-3V5h2Zm16 5v2h-8V2h8v3h-5v1h4v2h-4v2h5Zm11 2v-2h-5V8h5V6h-5V5h5V2h-8v10h8Zm4-10h5l3 1a5 5 0 0 1 2 4v3l-2 2h-8V2Zm5 8 2-1V5h-4v5h2Zm32 2V7l-3 4h-1l-3-4v5h-2V2h2l3 6 4-6h2v10h-2ZM65 26v-2l-2-1 1-1 1-1-1-2-3-1h-5v10h8l1-2Zm-7-4v-2h2l2 1-2 1h-2Zm3 2 1 1-1 1h-3v-2h3Zm9 3-2-3v-6h3v6l2 2 2-2v-6h3v6l-2 3-3 1-3-1Zm11 0 2 1h4l2-1v-3l-1-1-2-1h-2v-1l1-1 3 1 1-2-2-1h-2l-2 1-2 1v1l1 2 1 1h2l1 1h1l-2 1a6 6 0 0 1-3-1l-1 2Zm12-9h2v10h-2V18Zm16 10V18h-3v6l-4-6h-3v10h3v-5l5 5h2Zm12-2v2h-8V18h8v2h-5v2h4v2h-4v2h5Zm3 1 2 1h4l2-1v-3l-2-1-2-1h-1v-1l1-1 3 1 1-2-2-1h-2l-2 1-2 1v3l2 1h2l1 1-1 1a6 6 0 0 1-3-1l-1 2Zm13 1-2-1 1-2 1 1h2l2-1h-1l-1-1h-2l-1-1-1-2v-1l2-1 2-1h2l2 1-1 2-3-1-1 1v1h2l2 1 1 1v3l-2 1h-4ZM56 44l1 1h3l2-1 2-1v-3l-2-1h-2l-1-1h-1l1-1h1l3 1 1-3h-6l-2 1v3l2 1 1 1h2v1l-1 1a6 6 0 0 1-4-1v2Zm12 0-1-4v-5h3v5c0 2 1 3 2 3s2-1 2-3v-5h3v5l-2 4-3 1-4-1Zm21-5v6h3V35h-2l-4 5-3-5h-3v10h3v-5l3 4h1l2-5Zm16 6v-6l-3 5h-1l-2-4v5h-3V35h2l4 5 3-5h2l1 10h-3Zm9-10h-3v10h3V35Zm6 2h-3v-2h9v2h-3v8h-3v-8Z" clip-rule="evenodd"></path>
    </g>
    <defs>
      <clipPath id="a">
        <path d="M0 0h143v46H0z"></path>
      </clipPath>
    </defs>
  </symbol>
  <symbol xmlns="http://www.w3.org/2000/svg" viewBox="0 0 24 24" id="ticket">
    <g  clip-path="url(#a)">
      <path d="m19 11-8 8-1 1v-1l-5-5H4l1-1 8-8 1-1v1l5 5h1l-1 1Zm4-3-2-2-1 1-2-1-1-2 1-1-2-2-1-1-2 1L1 13l-1 2 1 1 2 2 1-1 2 1 1 2-1 1 2 2 1 1 2-1 12-12 1-2-1-1Z"></path>
      <path d="m14 6 4 4-8 8-4-4 8-8Z"></path>
    </g>
    <defs>
      <clipPath id="a">
        <path  d="M0 0h24v24H0z"></path>
      </clipPath>
    </defs>
  </symbol>
  <symbol xmlns="http://www.w3.org/2000/svg" viewBox="0 0 30 16" id="arrowRight">
    <g clip-path="url(#a)">
      <path  d="M30 8V7l-6-6a1 1 0 1 0-2 1l6 6-6 5a1 1 0 0 0 2 2l6-7ZM0 9h29V7H0v2Z"></path>
    </g>
    <defs>
      <clipPath id="a">
        <path  d="M0 0h30v15H0z" transform="translate(0 1)"></path>
      </clipPath>
    </defs>
  </symbol>
  <symbol xmlns="http://www.w3.org/2000/svg"  viewBox="0 0 17 17" id="arrowSmallRight">
    <path  d="M5 2h1l6 6-6 6a1 1 0 1 1-1 0l6-6-6-6Z"></path>
  </symbol>
  <symbol xmlns="http://www.w3.org/2000/svg"  viewBox="0 0 17 17" id="arrowSmallLeft">
    <path  d="M12 2 6 8l6 6a1 1 0 0 1-1 0L5 8l6-6h1Z"></path>
  </symbol>
  <symbol xmlns="http://www.w3.org/2000/svg"  viewBox="0 0 37 38" id="locationPin">
    <g >
      <path d="M19 18a2 2 0 1 0 0-5 2 2 0 0 0 0 5Z"></path>
      <path d="M19 4A12 12 0 0 0 6 16c0 8 11 18 11 18a2 2 0 0 0 3 0s11-10 11-18A12 12 0 0 0 19 4Zm0 17a5 5 0 1 1 0-11 5 5 0 0 1 0 11Z"></path>
    </g>
  </symbol>
  <symbol xmlns="http://www.w3.org/2000/svg"  viewBox="0 0 42 35" id="quote">
    <g clip-path="url(#a)">
      <path  fill-opacity=".4" d="M0 19V0h18v16c0 10-5 16-15 19l-3-6c3-1 5-2 6-4 2-1 2-3 2-6H0Zm24 0V0h18v16c0 10-5 16-15 19l-3-6 4-2c3-2 4-4 4-8h-8Z"></path>
    </g>
    <defs>
      <clipPath id="a">
        <path  d="M0 0h42v35H0z"></path>
      </clipPath>
    </defs>
  </symbol>
  <symbol xmlns="http://www.w3.org/2000/svg"  viewBox="0 0 21 21" id="arrowSmallBottom">
    <path fill-rule="evenodd" d="m3 6 8 7 7-7a1 1 0 0 1 0 1l-7 8a1 1 0 0 1-1 0L3 7a1 1 0 0 1 0-1Z" clip-rule="evenodd"></path>
  </symbol>
</svg>